<svg xmlns="http://www.w3.org/2000/svg" width="900" height="620" viewBox="0 0 900 620" role="img" aria-label="Suprimentos de impressão">
  <defs>
    <linearGradient id="bg" x1="0" y1="0" x2="1" y2="1"><stop offset="0" stop-color="#f7f5ee"/><stop offset="1" stop-color="#e7f1eb"/></linearGradient>
    <linearGradient id="g" x1="0" y1="0" x2="1" y2="1"><stop offset="0" stop-color="#0e3b2f"/><stop offset="1" stop-color="#17684f"/></linearGradient>
    <filter id="s" x="-20%" y="-20%" width="140%" height="140%"><feDropShadow dx="0" dy="25" stdDeviation="22" flood-color="#102820" flood-opacity="0.18"/></filter>
  </defs>
  <rect width="900" height="620" rx="54" fill="url(#bg)"/>
  <circle cx="735" cy="95" r="130" fill="#c8a24a" opacity="0.16"/>
  <circle cx="140" cy="520" r="150" fill="#17684f" opacity="0.08"/>
  <g filter="url(#s)">
    <rect x="180" y="190" width="540" height="260" rx="34" fill="#fff" stroke="#ded8cc" stroke-width="3"/>
    <rect x="245" y="130" width="410" height="120" rx="20" fill="#fbfaf7" stroke="#ded8cc" stroke-width="3"/>
    <rect x="255" y="155" width="390" height="68" rx="12" fill="#eef4f0"/>
    <rect x="230" y="300" width="440" height="105" rx="19" fill="url(#g)"/>
    <rect x="265" y="326" width="370" height="18" rx="9" fill="#fff" opacity="0.28"/>
    <rect x="265" y="360" width="250" height="18" rx="9" fill="#fff" opacity="0.20"/>
    <circle cx="675" cy="245" r="18" fill="#17684f"/>
    <circle cx="625" cy="245" r="18" fill="#c8a24a"/>
  </g>
  <g filter="url(#s)">
    <rect x="95" y="325" width="96" height="190" rx="22" fill="#0e3b2f"/>
    <rect x="115" y="352" width="56" height="98" rx="10" fill="#fff" opacity="0.9"/>
    <rect x="122" y="366" width="42" height="18" rx="4" fill="#17684f"/>
    <rect x="122" y="396" width="42" height="36" rx="5" fill="#c8a24a" opacity="0.65"/>
  </g>
  <g filter="url(#s)">
    <rect x="715" y="304" width="82" height="190" rx="18" fill="#ffffff" stroke="#ded8cc" stroke-width="3"/>
    <rect x="735" y="330" width="42" height="128" rx="9" fill="#0e3b2f"/>
    <rect x="746" y="348" width="20" height="92" rx="4" fill="#fff" opacity="0.85"/>
  </g>
  <text x="450" y="548" text-anchor="middle" font-family="Arial, Helvetica, sans-serif" font-size="28" font-weight="800" fill="#0e3b2f">Cartuchos • Toners • Fotocondutores</text>
</svg>
